<?xml version="1.0" encoding="UTF-8"?>
<svg id="Layer_1" data-name="Layer 1" xmlns="http://www.w3.org/2000/svg" version="1.1" viewBox="0 0 468.48 94.31">
  <defs>
    <style>
      .cls-1 {
        fill: #b5b5b5;
      }

      .cls-1, .cls-2, .cls-3, .cls-4, .cls-5 {
        stroke-width: 0px;
      }

      .cls-2 {
        fill: #8e8e8e;
      }

      .cls-3 {
        fill: #5a5a5a;
      }

      .cls-4 {
        fill: #353535;
      }

      .cls-5 {
        fill: #fff;
      }
    </style>
  </defs>
  <path class="cls-5" d="M159.09,76.55c-3.93,0-7.61-.58-11.04-1.73-3.43-1.15-6.39-2.85-8.88-5.1-2.49-2.24-4.46-5-5.89-8.28-1.43-3.27-2.15-7.03-2.15-11.27s.59-7.73,1.78-11.04c1.18-3.3,2.84-6.11,4.96-8.42,2.12-2.31,4.64-4.08,7.58-5.33,2.93-1.25,6.14-1.87,9.63-1.87,3.93,0,7.39.78,10.38,2.34,2.99,1.56,5.52,3.6,7.57,6.13,2.06,2.52,3.6,5.42,4.63,8.7,1.03,3.27,1.54,6.62,1.54,10.05,0,1.75-.42,2.98-1.26,3.69-.84.72-1.92,1.08-3.23,1.08h-30.95c.31,1.68.94,3.17,1.87,4.44.94,1.28,2.09,2.34,3.46,3.18,1.37.84,2.87,1.48,4.49,1.92,1.62.44,3.3.65,5.05.65s3.77-.25,5.89-.75c2.12-.5,3.99-1,5.61-1.5,1.06-.43,1.95-.39,2.67.14.71.53,1.42,1.64,2.1,3.32.81,2,1.17,3.37,1.08,4.11-.09.75-.7,1.47-1.82,2.15-.81.5-1.79.95-2.95,1.36-1.15.41-2.4.75-3.74,1.03-1.34.28-2.73.52-4.16.7-1.43.19-2.84.28-4.21.28ZM166.76,44.76c-.19-1.5-.61-2.88-1.26-4.16-.65-1.28-1.5-2.38-2.52-3.32-1.03-.94-2.2-1.67-3.51-2.2-1.31-.53-2.74-.79-4.3-.79-1.75,0-3.27.3-4.58.89-1.31.59-2.45,1.39-3.41,2.38-.97,1-1.73,2.12-2.29,3.37-.56,1.25-.97,2.53-1.22,3.83h23.1ZM208.84,62.52c.5-1.43.95-2.82,1.36-4.16.41-1.34.79-2.63,1.17-3.88l7.94-25.41c.79-2.52,3.12-4.23,5.76-4.23h0c4.15,0,7.06,4.09,5.7,8l-13.13,38.01c-.37,1.06-.79,1.93-1.26,2.62-.47.69-1.04,1.23-1.73,1.64-.69.41-1.5.69-2.43.84-.94.15-2.09.23-3.46.23-2.37,0-4.19-.34-5.47-1.03-1.28-.69-2.32-2.12-3.13-4.3l-13.17-37.89c-1.38-3.97,1.57-8.12,5.77-8.12h0c2.68,0,5.04,1.74,5.83,4.3l7.83,25.16c.37,1.25.75,2.57,1.12,3.98.37,1.4.81,2.82,1.31,4.26ZM241.29,10.25c0-2.06.73-3.82,2.2-5.28,1.46-1.46,3.26-2.2,5.38-2.2s3.91.73,5.38,2.2c1.46,1.47,2.2,3.23,2.2,5.28s-.73,3.91-2.2,5.38c-1.47,1.47-3.26,2.2-5.38,2.2s-3.91-.73-5.38-2.2c-1.47-1.46-2.2-3.26-2.2-5.38ZM248.82,23.81h0c3.49,0,6.31,2.83,6.31,6.31v43.25c0,.94-.47,1.64-1.4,2.1-.94.47-2.59.7-4.96.7s-4.01-.23-4.91-.7c-.9-.47-1.36-1.17-1.36-2.1V30.12c0-3.49,2.83-6.31,6.31-6.31ZM309,76.18c-2.56,0-4.21-.23-4.96-.7-.75-.47-1.12-1.17-1.12-2.1v-2.71c-1.87,1.87-4.04,3.32-6.5,4.35-2.46,1.03-5.38,1.54-8.74,1.54s-6.23-.69-8.98-2.06c-2.74-1.37-5.11-3.26-7.11-5.66-2-2.4-3.55-5.2-4.68-8.42-1.12-3.21-1.68-6.65-1.68-10.33s.53-6.84,1.59-10.05c1.06-3.21,2.62-6.03,4.68-8.46,2.06-2.43,4.58-4.38,7.58-5.84,2.99-1.46,6.42-2.2,10.29-2.2,1.25,0,2.51.14,3.79.42,1.28.28,2.51.67,3.69,1.17,1.18.5,2.29,1.08,3.32,1.73,1.03.65,1.92,1.36,2.67,2.1V9.64c0-3.38,2.74-6.13,6.13-6.13h0c3.38,0,6.13,2.74,6.13,6.13v63.73c0,.94-.37,1.64-1.12,2.1-.75.47-2.4.7-4.96.7ZM302.92,50.55c0-3.12-.42-5.7-1.26-7.76s-1.9-3.71-3.18-4.96c-1.28-1.25-2.66-2.12-4.16-2.62-1.5-.5-2.9-.75-4.21-.75-1.87,0-3.57.39-5.1,1.17-1.53.78-2.85,1.86-3.98,3.23-1.12,1.37-1.98,3.01-2.57,4.91-.59,1.9-.89,4.01-.89,6.31s.31,4.51.94,6.41c.62,1.9,1.5,3.54,2.62,4.91,1.12,1.37,2.45,2.42,3.97,3.13,1.53.72,3.19,1.08,5,1.08,1.12,0,2.42-.22,3.88-.66,1.46-.43,2.85-1.23,4.16-2.38,1.31-1.15,2.43-2.7,3.37-4.63.94-1.93,1.4-4.4,1.4-7.39ZM357.53,41.11c0-2.37-.95-4.08-2.85-5.14-2.06-1.15-4.66-1.68-7.78-1.58-.54.02-1.1.07-1.64.17-1.62.29-3.05.74-4.28,1.36-.94.47-1.7,1.01-2.29,1.64-.59.62-.89,1.25-.89,1.87v33.95c0,.94-.42,1.64-1.26,2.1-.84.47-2.45.7-4.82.7s-3.97-.23-4.82-.7c-.84-.47-1.26-1.17-1.26-2.1V28.11c0-1.81,1.47-3.27,3.27-3.27h5.33c1.81,0,3.27,1.47,3.27,3.27h0c1.43-1.37,3.26-2.48,5.47-3.32,2.21-.84,4.91-1.26,8.09-1.26,2.74,0,5.25.44,7.53,1.31,2.27.87,4.24,2.1,5.89,3.69,1.65,1.59,2.93,3.49,3.83,5.7.9,2.21,1.36,4.66,1.36,7.34v31.79c0,.94-.42,1.64-1.26,2.1-.84.47-2.45.7-4.82.7s-3.97-.23-4.82-.7c-.84-.47-1.26-1.17-1.26-2.1v-32.26ZM406.25,76.55c-3.93,0-7.61-.58-11.04-1.73-3.43-1.15-6.39-2.85-8.88-5.1-2.49-2.24-4.46-5-5.89-8.28-1.43-3.27-2.15-7.03-2.15-11.27s.59-7.73,1.78-11.04c1.18-3.3,2.84-6.11,4.96-8.42,2.12-2.31,4.64-4.08,7.58-5.33,2.93-1.25,6.14-1.87,9.63-1.87,3.93,0,7.39.78,10.38,2.34,2.99,1.56,5.52,3.6,7.57,6.13,2.06,2.52,3.6,5.42,4.63,8.7,1.03,3.27,1.54,6.62,1.54,10.05,0,1.75-.42,2.98-1.26,3.69-.84.72-1.92,1.08-3.23,1.08h-30.95c.31,1.68.94,3.17,1.87,4.44.94,1.28,2.09,2.34,3.46,3.18,1.37.84,2.87,1.48,4.49,1.92,1.62.44,3.3.65,5.05.65s3.77-.25,5.89-.75c2.12-.5,3.99-1,5.61-1.5,1.06-.43,1.95-.39,2.67.14.71.53,1.42,1.64,2.1,3.32.81,2,1.17,3.37,1.08,4.11-.09.75-.7,1.47-1.82,2.15-.81.5-1.79.95-2.95,1.36-1.15.41-2.4.75-3.74,1.03-1.34.28-2.73.52-4.16.7-1.43.19-2.84.28-4.21.28ZM413.92,44.76c-.19-1.5-.61-2.88-1.26-4.16-.65-1.28-1.5-2.38-2.52-3.32s-2.2-1.67-3.51-2.2c-1.31-.53-2.74-.79-4.3-.79-1.75,0-3.27.3-4.58.89-1.31.59-2.45,1.39-3.41,2.38-.97,1-1.73,2.12-2.29,3.37-.56,1.25-.97,2.53-1.22,3.83h23.1ZM463.86,64.49c1.06,0,1.79.36,2.2,1.08.41.72.61,2.14.61,4.26s-.2,3.57-.61,4.35c-.41.78-1.14,1.17-2.2,1.17h-9.91c-1.87,0-3.59-.23-5.14-.7-1.56-.47-2.9-1.22-4.02-2.24-1.12-1.03-2.01-2.35-2.66-3.98-.66-1.62-.98-3.61-.98-5.98v-26.65h-7.21c-1.54,0-2.79-1.25-2.79-2.79v-5.36c0-1.54,1.25-2.79,2.79-2.79h7.21v-14.31h12.16v14.31h10.85c1.06,0,1.79.37,2.2,1.12.4.75.61,2.18.61,4.3s-.2,3.57-.61,4.35c-.41.78-1.14,1.17-2.2,1.17h-10.85v26c0,1.06.23,1.78.7,2.15s1.17.56,2.1.56h7.76Z"/>
  <g>
    <path class="cls-4" d="M90.97,77.02l-20.88-20.88c1.49-2.16,2.37-4.77,2.37-7.59s-.88-5.43-2.37-7.59l23.54-23.54-3.41-3.41-23.54,23.54c-2.16-1.49-4.77-2.37-7.59-2.37-6.97,0-12.63,5.35-13.25,12.15h-29.63s0,4.83,0,4.83h30.06c1.58,5.62,6.69,9.77,12.82,9.77,2.82,0,5.43-.88,7.59-2.37l20.88,20.88,3.41-3.41Z"/>
    <circle class="cls-3" cx="16.21" cy="50.26" r="13.37"/>
    <circle class="cls-1" cx="91.93" cy="15.72" r="13.37"/>
    <circle class="cls-2" cx="91.86" cy="78.79" r="13.37"/>
  </g>
</svg>