<?xml version="1.0" encoding="UTF-8"?>
<svg id="_레이어_1" data-name="레이어 1" xmlns="http://www.w3.org/2000/svg" version="1.1" viewBox="0 0 125.44 18.56">
  <defs>
    <style>
      .cls-1 {
        fill: #005bff;
      }

      .cls-1, .cls-2, .cls-3 {
        stroke-width: 0px;
      }

      .cls-2 {
        fill: #66baff;
      }

      .cls-3 {
        fill: #48484c;
      }
    </style>
  </defs>
  <g>
    <path class="cls-2" d="M5.23,6.99h0c1.56,0,2.83,1.27,2.83,2.83v8.5H3.81c-.78,0-1.42-.64-1.42-1.42v-7.09c0-1.56,1.27-2.83,2.83-2.83Z" transform="translate(-7.42 7.41) rotate(-45)"/>
    <path class="cls-1" d="M17.25,4.64c-1.11-1.11-2.9-1.11-4.01,0L4.22,13.66c-.55.55-1.45.55-2,0l1,1h0s3.01,3.01,3.01,3.01c.55.55,1.45.55,2,0l9.02-9.02c1.11-1.11,1.11-2.9,0-4.01Z"/>
    <circle class="cls-2" cx="2.66" cy="4.14" r="2.28"/>
  </g>
  <g>
    <path class="cls-3" d="M28.75,12.45c.24,2.23,1.37,3.19,2.93,3.19,1.18,0,2.02-.53,2.62-1.61l2.42,1.37c-1.1,1.75-2.93,2.69-5.21,2.69-3.98,0-6.1-2.78-6.1-6.36s2.14-6.43,5.9-6.43,5.62,2.69,5.62,6.46c0,.41-.02.6-.02.7h-8.16ZM28.75,10.57h4.87c0-1.51-.72-2.88-2.38-2.88-1.49,0-2.3,1.08-2.5,2.88Z"/>
    <path class="cls-3" d="M37.59,5.65h3.65l2.33,9,2.28-9h3.5l-3.98,12.05h-3.84l-3.94-12.05Z"/>
    <path class="cls-3" d="M50.9.9h3.26v2.66h-3.26V.9ZM50.9,5.65h3.26v12.05h-3.26V5.65Z"/>
    <path class="cls-3" d="M59.98,11.32l-3.58-5.66h3.55l2.33,3.89,2.38-3.89h3.5l-3.6,5.69,4.22,6.36h-3.77l-2.74-4.56-2.76,4.56h-3.74l4.2-6.38Z"/>
    <path class="cls-3" d="M69.58,9.11h5.74v2.83h-5.74v-2.83Z"/>
    <path class="cls-3" d="M78.71.76h5.81c5.83,0,8.86,2.59,8.86,8.47s-3.17,8.47-8.66,8.47h-6V.76ZM84.59,15.04c3.96,0,5.02-2.74,5.02-5.83s-1.06-5.78-5.11-5.78h-2.28v11.62h2.38Z"/>
    <path class="cls-3" d="M110.44,13.98c-1.58,2.76-3.84,4.1-7.2,4.1-5.45,0-8.3-3.79-8.3-8.88S97.94.4,103.22.4c3,0,5.42,1.01,7.15,3.72l-3.34,1.68c-.74-1.49-2.11-2.35-3.79-2.35-3.1,0-4.58,2.54-4.58,5.76s1.63,5.83,4.68,5.83c1.8,0,3.1-.77,3.91-2.69l3.19,1.63Z"/>
    <path class="cls-3" d="M116.64,3.42h-4.87V.76h13.25v2.66h-4.87v14.28h-3.5V3.42Z"/>
  </g>
</svg>