<svg width="121" height="19" viewBox="0 0 121 19" fill="none" xmlns="http://www.w3.org/2000/svg">
<g clip-path="url(#clip0_965_2559)">
<path d="M1.17201 8.6545C2.23097 7.55141 3.95518 7.55141 5.01414 8.6545L10.7841 14.6649L7.89914 17.6701C7.36966 18.2217 6.50077 18.2217 5.97128 17.6701L1.15843 12.6567C0.0994705 11.5536 0.09947 9.75758 1.15843 8.6545L1.17201 8.6545Z" fill="white"/>
<path d="M16.56 4.64C15.4944 3.53 13.776 3.53 12.7104 4.64L4.0512 13.66C3.5232 14.21 2.6592 14.21 2.1312 13.66L3.0912 14.66L5.9808 17.67C6.5088 18.22 7.3728 18.22 7.9008 17.67L16.56 8.64999C17.6256 7.53999 17.6256 5.75 16.56 4.64Z" fill="white"/>
<path d="M2.5536 6.41999C3.76244 6.41999 4.7424 5.39919 4.7424 4.13999C4.7424 2.88078 3.76244 1.85999 2.5536 1.85999C1.34476 1.85999 0.364799 2.88078 0.364799 4.13999C0.364799 5.39919 1.34476 6.41999 2.5536 6.41999Z" fill="white"/>
<path d="M27.6 12.45C27.8304 14.68 28.9152 15.64 30.4128 15.64C31.5456 15.64 32.352 15.11 32.928 14.03L35.2512 15.4C34.1952 17.15 32.4384 18.09 30.2496 18.09C26.4288 18.09 24.3936 15.31 24.3936 11.73C24.3936 8.14999 26.448 5.29999 30.0576 5.29999C33.6672 5.29999 35.4528 7.98999 35.4528 11.76C35.4528 12.17 35.4336 12.36 35.4336 12.46H27.6V12.45ZM27.6 10.57H32.2752C32.2752 9.05999 31.584 7.68999 29.9904 7.68999C28.56 7.68999 27.7824 8.76999 27.5904 10.57H27.6Z" fill="white"/>
<path d="M36.0864 5.64999H39.5904L41.8272 14.65L44.016 5.64999H47.376L43.5552 17.7H39.8688L36.0864 5.64999Z" fill="white"/>
<path d="M48.864 0.899994H51.9936V3.55999H48.864V0.899994ZM48.864 5.64999H51.9936V17.7H48.864V5.64999Z" fill="white"/>
<path d="M57.5808 11.32L54.144 5.66H57.552L59.7888 9.55L62.0736 5.66H65.4336L61.9776 11.35L66.0288 17.71H62.4096L59.7792 13.15L57.1296 17.71H53.5392L57.5712 11.33L57.5808 11.32Z" fill="white"/>
<path d="M66.7968 9.10999H72.3072V11.94H66.7968V9.10999Z" fill="white"/>
<path d="M75.5616 0.759979H81.1392C86.736 0.759979 89.6448 3.34998 89.6448 9.22998C89.6448 15.11 86.6016 17.7 81.3312 17.7H75.5712V0.759979H75.5616ZM81.2064 15.04C85.008 15.04 86.0256 12.3 86.0256 9.20998C86.0256 6.11998 85.008 3.42998 81.12 3.42998H78.9312V15.05H81.216L81.2064 15.04Z" fill="white"/>
<path d="M106.022 13.98C104.506 16.74 102.336 18.08 99.1104 18.08C93.8784 18.08 91.1424 14.29 91.1424 9.19999C91.1424 4.10999 94.0224 0.399994 99.0912 0.399994C101.971 0.399994 104.294 1.40999 105.955 4.11999L102.749 5.79999C102.038 4.30999 100.723 3.44999 99.1104 3.44999C96.1344 3.44999 94.7136 5.98999 94.7136 9.20999C94.7136 12.43 96.2784 15.04 99.2064 15.04C100.934 15.04 102.182 14.27 102.96 12.35L106.022 13.98Z" fill="white"/>
<path d="M111.974 3.41998H107.299V0.759979H120.019V3.41998H115.344V17.7H111.984V3.41998H111.974Z" fill="white"/>
</g>
<defs>
<clipPath id="clip0_965_2559">
<rect width="120.422" height="18.56" fill="white"/>
</clipPath>
</defs>
</svg>
